<?xml version="1.0" encoding="UTF-8" standalone="no"?>
<!-- Created with Inkscape (http://www.inkscape.org/) -->

<svg
   xmlns:dc="http://purl.org/dc/elements/1.1/"
   xmlns:cc="http://creativecommons.org/ns#"
   xmlns:rdf="http://www.w3.org/1999/02/22-rdf-syntax-ns#"
   xmlns:svg="http://www.w3.org/2000/svg"
   xmlns="http://www.w3.org/2000/svg"
   xmlns:sodipodi="http://sodipodi.sourceforge.net/DTD/sodipodi-0.dtd"
   xmlns:inkscape="http://www.inkscape.org/namespaces/inkscape"
   id="svg4136"
   version="1.1"
   inkscape:version="0.91 r13725"
   width="206.8869"
   height="280.71936"
   viewBox="0 0 206.8869 280.71936"
   sodipodi:docname="markers.svg">
  <metadata
     id="metadata4142">
    <rdf:RDF>
      <cc:Work
         rdf:about="">
        <dc:format>image/svg+xml</dc:format>
        <dc:type
           rdf:resource="http://purl.org/dc/dcmitype/StillImage" />
        <dc:title></dc:title>
      </cc:Work>
    </rdf:RDF>
  </metadata>
  <defs
     id="defs4140">
    <filter
       inkscape:collect="always"
       style="color-interpolation-filters:sRGB"
       id="filter4194"
       x="-0.15008446"
       width="1.3001689"
       y="-0.099962499"
       height="1.199925">
      <feGaussianBlur
         inkscape:collect="always"
         stdDeviation="3.6937418"
         id="feGaussianBlur4196" />
    </filter>
    <filter
       inkscape:collect="always"
       style="color-interpolation-filters:sRGB"
       id="filter4194-5"
       x="-0.15008447"
       width="1.3001689"
       y="-0.099962503"
       height="1.1999249">
      <feGaussianBlur
         inkscape:collect="always"
         stdDeviation="3.6937418"
         id="feGaussianBlur4196-1" />
    </filter>
    <filter
       inkscape:collect="always"
       style="color-interpolation-filters:sRGB"
       id="filter4194-1"
       x="-0.15008447"
       width="1.3001689"
       y="-0.099962503"
       height="1.1999249">
      <feGaussianBlur
         inkscape:collect="always"
         stdDeviation="3.6937418"
         id="feGaussianBlur4196-7" />
    </filter>
  </defs>
  <sodipodi:namedview
     pagecolor="#ffffff"
     bordercolor="#666666"
     borderopacity="1"
     objecttolerance="10"
     gridtolerance="10"
     guidetolerance="10"
     inkscape:pageopacity="0"
     inkscape:pageshadow="2"
     inkscape:window-width="878"
     inkscape:window-height="373"
     id="namedview4138"
     showgrid="false"
     inkscape:zoom="1.6108429"
     inkscape:cx="27.761858"
     inkscape:cy="284.24369"
     inkscape:window-x="471"
     inkscape:window-y="84"
     inkscape:window-maximized="0"
     inkscape:current-layer="svg4136" />
  <g
     id="g4229"
     transform="matrix(1.0000056,0,0,1.0000056,48.422048,7.448878)"
     inkscape:export-xdpi="84.576134"
     inkscape:export-ydpi="84.576134">
    <path
       inkscape:connector-curvature="0"
       id="path4146-3"
       d="m 3.4716219,104.85481 c -3.35145004,-0.10856 -6.04691,-2.62237 -7.0306,-5.716335 -6.6066299,-13.84965 -13.1038999,-27.7497 -19.6898999,-41.62424 -2.893393,-5.60026 -2.968733,-12.18941 -1.95294,-18.27337 1.6621,-7.34056 6.27047,-13.813774 12.44258,-18.059049 10.2611299,-7.14384 25.24825,-6.62737 34.87589,1.419199 5.1253,4.150605 8.99679,9.91126 10.4468,16.38569 1.23703,6.24175 1.03159,13.10665 -2.03461,18.81153 -6.76767,14.37121 -13.49105,28.83518 -20.34925,43.188835 -1.2597601,2.44073 -4.0003001,3.88403 -6.7079701,3.86774 z m 0.62705,-44.310205 c 7.4208301,-0.0178 14.2053001,-6.46405 14.3400101,-13.92786 0.52168,-4.65698 -1.69461,-9.53381 -5.44247,-12.38759 -5.2027001,-4.570803 -13.92573014,-4.41506 -18.9689701,0.3521 -6.1231599,4.8417 -6.8553499,14.86056 -1.63717,20.62234 2.7757,3.49481 7.24682996,5.46532 11.7086,5.34101 z"
       style="fill:#000000;fill-opacity:0.94117647;filter:url(#filter4194)" />
    <path
       inkscape:connector-curvature="0"
       id="path4146"
       d="m 3.4716164,104.85481 c -3.35144701,-0.10856 -6.046908,-2.62237 -7.030599,-5.716342 C -10.165611,85.28882 -16.662877,71.388774 -23.248878,57.514231 c -2.893389,-5.600262 -2.968732,-12.189406 -1.952943,-18.273364 1.662096,-7.340563 6.270467,-13.813779 12.442584,-18.059054 10.2611264,-7.14384 25.248245,-6.62737 34.875888,1.419199 5.125295,4.150605 8.996788,9.911258 10.446797,16.38569 1.237031,6.24175 1.031586,13.106646 -2.034608,18.81153 -6.767669,14.371213 -13.491047,28.835177 -20.349249,43.188828 -1.2597606,2.44074 -4.0003016,3.88404 -6.7079746,3.86775 z m 0.627053,-44.310205 c 7.4208296,-0.01784 14.2053016,-6.464053 14.3400086,-13.927861 0.521681,-4.65698 -1.694611,-9.533816 -5.442473,-12.38759 -5.2026916,-4.570805 -13.92573061,-4.415062 -18.9689666,0.352098 -6.1231564,4.841705 -6.8553534,14.860558 -1.637168,20.622338 2.775699,3.494811 7.24683299,5.465322 11.708599,5.341015 z"
       style="fill:#ffcc0f;fill-opacity:0.94117647" />
  </g>
  <g
     id="g4233"
     transform="translate(-116.08829,147.12794)"
     inkscape:export-xdpi="84.576134"
     inkscape:export-ydpi="84.576134">
    <path
       inkscape:connector-curvature="0"
       id="path4146-3-1"
       d="m 168.73468,97.675878 c -3.35145,-0.10856 -6.04691,-2.62237 -7.0306,-5.716337 -6.60663,-13.84965 -13.1039,-27.7497 -19.6899,-41.62424 -2.89339,-5.60026 -2.96873,-12.18941 -1.95294,-18.27337 1.6621,-7.34056 6.27047,-13.813774 12.44258,-18.059049 10.26113,-7.14384 25.24825,-6.62737 34.87589,1.419199 5.1253,4.150605 8.99679,9.91126 10.4468,16.38569 1.23703,6.24175 1.03159,13.10665 -2.03461,18.81153 -6.76767,14.37121 -13.49105,28.83518 -20.34925,43.18883 -1.25976,2.440737 -4.0003,3.884037 -6.70797,3.867747 z m 0.62705,-44.310207 c 7.42083,-0.0178 14.2053,-6.46405 14.34001,-13.92786 0.52168,-4.65698 -1.69461,-9.53381 -5.44247,-12.38759 -5.2027,-4.570803 -13.92573,-4.41506 -18.96897,0.3521 -6.12316,4.8417 -6.85535,14.86056 -1.63717,20.62234 2.7757,3.49481 7.24683,5.46532 11.7086,5.34101 z"
       style="fill:#000000;fill-opacity:0.94117647;filter:url(#filter4194-5)" />
    <path
       inkscape:connector-curvature="0"
       id="path4146-6"
       d="m 168.73467,97.675875 c -3.35145,-0.10856 -6.04691,-2.62237 -7.0306,-5.716341 -6.60662,-13.849648 -13.10389,-27.749694 -19.68989,-41.624237 -2.89339,-5.600262 -2.96873,-12.189406 -1.95294,-18.273364 1.66209,-7.340563 6.27046,-13.813779 12.44258,-18.059054 10.26112,-7.1438396 25.24824,-6.6273696 34.87589,1.419199 5.12529,4.150605 8.99679,9.911258 10.44679,16.38569 1.23704,6.24175 1.03159,13.106646 -2.0346,18.81153 -6.76767,14.371213 -13.49105,28.835177 -20.34926,43.188837 -1.25976,2.44073 -4.0003,3.88403 -6.70797,3.86774 z m 0.62705,-44.310204 c 7.42084,-0.01784 14.20531,-6.464053 14.34001,-13.927861 0.52169,-4.65698 -1.69461,-9.533816 -5.44247,-12.38759 -5.20269,-4.570805 -13.92573,-4.415062 -18.96897,0.352098 -6.12315,4.841705 -6.85535,14.860558 -1.63717,20.622338 2.7757,3.494811 7.24684,5.465322 11.7086,5.341015 z"
       style="fill:#ff0000" />
  </g>
  <g
     id="g4237"
     transform="translate(41.593131,-37.868374)"
     inkscape:export-xdpi="84.576134"
     inkscape:export-ydpi="84.576134">
    <path
       inkscape:connector-curvature="0"
       id="path4146-3-2"
       d="m 110.79104,212.68522 c -3.35145,-0.10856 -6.04691,-2.62237 -7.0306,-5.71634 -6.606632,-13.84965 -13.103902,-27.7497 -19.689902,-41.62424 -2.89339,-5.60026 -2.968731,-12.18941 -1.95294,-18.27337 1.6621,-7.34056 6.27047,-13.81377 12.44258,-18.05905 10.261132,-7.14384 25.248252,-6.62737 34.875892,1.4192 5.1253,4.15061 8.99679,9.91126 10.4468,16.38569 1.23703,6.24175 1.03159,13.10665 -2.03461,18.81153 -6.76767,14.37121 -13.49105,28.83518 -20.34925,43.18883 -1.25976,2.44074 -4.0003,3.88404 -6.70797,3.86775 z m 0.62705,-44.31021 c 7.42083,-0.0178 14.2053,-6.46405 14.34001,-13.92786 0.52168,-4.65698 -1.69461,-9.53381 -5.44247,-12.38759 -5.2027,-4.5708 -13.92573,-4.41506 -18.96897,0.3521 -6.123162,4.8417 -6.855352,14.86056 -1.637172,20.62234 2.775702,3.49481 7.246832,5.46532 11.708602,5.34101 z"
       style="fill:#000000;fill-opacity:0.94117647;filter:url(#filter4194-1)" />
    <path
       inkscape:connector-curvature="0"
       id="path4146-6-8"
       d="m 110.79103,212.68522 c -3.35145,-0.10856 -6.04691,-2.62237 -7.0306,-5.71634 -6.606625,-13.84965 -13.103885,-27.7497 -19.689885,-41.62424 -2.89339,-5.60026 -2.96874,-12.18941 -1.95295,-18.27336 1.6621,-7.34057 6.27047,-13.81378 12.44259,-18.05906 10.261115,-7.14384 25.248235,-6.62737 34.875885,1.4192 5.12529,4.15061 8.99679,9.91126 10.44679,16.38569 1.23704,6.24175 1.03159,13.10665 -2.0346,18.81153 -6.76767,14.37121 -13.49105,28.83518 -20.34926,43.18884 -1.25976,2.44073 -4.0003,3.88403 -6.70797,3.86774 z m 0.62705,-44.31021 c 7.42084,-0.0178 14.20531,-6.46405 14.34001,-13.92786 0.52169,-4.65698 -1.69461,-9.53381 -5.44247,-12.38759 -5.20269,-4.5708 -13.92573,-4.41506 -18.96897,0.3521 -6.123145,4.84171 -6.855345,14.86056 -1.637165,20.62234 2.775695,3.49481 7.246835,5.46532 11.708595,5.34101 z"
       style="fill:#0000ff" />
  </g>
</svg>
